<?xml version="1.0" encoding="utf-8"?>
<!-- Generator: Adobe Illustrator 23.0.6, SVG Export Plug-In . SVG Version: 6.00 Build 0)  -->
<svg version="1.1" id="Layer_1" xmlns="http://www.w3.org/2000/svg" xmlns:xlink="http://www.w3.org/1999/xlink" x="0px" y="0px"
	 viewBox="0 0 260 60" style="enable-background:new 0 0 260 60;" xml:space="preserve">
<style type="text/css">
	.st0{fill:#FFFFFF;}
	.st1{fill:none;}
</style>
<g>
	<path class="st0" d="M143.26,53.58v-8.1h3.21l1.43,5.05l1.43-5.05h3.21v8.1h-2.39V51.1l0.03-1.26l0.13-1.46h-0.02l-1.47,5.2h-1.85
		l-1.47-5.2h-0.02l0.11,1.19l0.06,1.26v2.75H143.26z"/>
	<path class="st0" d="M162.02,45.48h2.66v4.85c0,0.8,0.16,1.49,1.25,1.49c0.96,0,1.24-0.61,1.24-1.49v-4.85h2.66v4.58
		c0,2.6-1.2,3.74-3.89,3.74c-2.51,0-3.9-0.96-3.9-3.75v-4.57H162.02z"/>
	<path class="st0" d="M184.79,49.9l-0.1-1.85v-2.58h2.54v8.1h-2.49l-2.89-4.41l0.1,1.85v2.57h-2.54v-8.1h2.49L184.79,49.9z"/>
	<path class="st0" d="M201.87,48.58c-0.08-0.84-0.61-1.33-1.44-1.33c-0.93,0-1.5,0.8-1.5,2.36c0,1.14,0.25,2.21,1.6,2.21
		c0.86,0,1.26-0.6,1.36-1.37h2.55c-0.24,2.09-1.73,3.35-3.87,3.35c-2.68,0-4.3-1.64-4.3-4.28c0-2.62,1.78-4.25,4.04-4.25
		c2.48,0,3.86,1.23,4.07,3.31H201.87z"/>
	<path class="st0" d="M213.67,53.58v-8.1h2.66v8.1H213.67z"/>
	<path class="st0" d="M226.07,53.58v-8.1h6.61v1.89h-3.95v1.16h3.34v1.89h-3.34v1.27h4.11v1.89H226.07z"/>
</g>
<g>
	<path class="st0" d="M11.36,23.07c0-3.16-0.1-3.16-3.03-3.64v-0.7h15.29l0.1,4.72h-0.89c0-2.55-1.37-3.22-3.45-3.22h-2.49
		c-1.6,0-2.01,0.13-2.01,1.66v6.35h3.86c2.24,0,2.43-1.4,2.62-2.46h0.89v6.7h-0.89c0-1.72-0.7-2.74-2.62-2.74h-3.86v10.47h-3.51
		V23.07H11.36z"/>
	<path class="st0" d="M28.24,22.95c0-2.68-0.1-2.71-3.19-3.13v-0.7l6.7-0.73v21.84h-3.51V22.95z"/>
	<path class="st0" d="M37.44,23.07c0-3.16-0.06-3.16-3.03-3.64v-0.7h7.85c2.39,0,9,0,9,5.71c0,3.64-2.36,4.85-4.88,5.27l5.87,10.5
		h-3.67l-5.65-9.93h-1.98v9.93h-3.51C37.44,40.21,37.44,23.07,37.44,23.07z M40.95,28.79h1.82c2.07,0,4.98-0.58,4.98-4.15
		c0-3.45-1.98-4.41-4.66-4.41c-2.14,0-2.14,0.57-2.14,2.87V28.79z"/>
	<path class="st0" d="M66.55,21.32c-0.86-0.41-3.22-1.44-5.71-1.44c-1.69,0-3.06,0.99-3.06,3.1c0,4.92,10.38,4.47,10.38,11.3
		c0,4.57-3.61,6.29-8.01,6.29c-2.46,0-4.92-0.67-5.59-0.83v-2.59c0.99,0.57,3.54,1.92,6.1,1.92c2.01,0,3.99-0.83,3.99-3.73
		c0-5.17-10.37-4.69-10.37-11.43c0-3.51,2.68-5.52,7.18-5.52c2.2,0,4.28,0.41,5.11,0.57v2.36H66.55z"/>
	<path class="st0" d="M75.52,20.23h-2.2c-2.52,0-3.26,0.8-3.45,3.13h-0.89l0.13-4.63h16.34l0.13,4.72h-0.89
		c0-2.46-1.02-3.22-3.48-3.22h-2.17v19.98h-3.51L75.52,20.23L75.52,20.23z"/>
</g>
<g>
	<path class="st0" d="M143.06,23.07c0-3.16-0.06-3.16-3.03-3.64v-0.7h9.48c3.67,0,7.57,0.86,7.57,5.17c0,3.13-2.27,4.34-3.83,4.85
		v0.06c2.27,0.45,4.92,1.63,4.92,5.68c0,5.71-6.48,5.71-9.1,5.71h-6L143.06,23.07L143.06,23.07z M146.57,28.12h2.14
		c2.75,0,4.85-0.89,4.85-4.05c0-2.87-1.63-3.83-4.53-3.83c-1.92,0-2.46,0.1-2.46,1.66V28.12z M146.57,37.41
		c0,1.31,1.31,1.31,3.06,1.31c3.51,0,5.01-1.56,5.01-4.82c0-3.16-2.36-4.28-5.17-4.28h-2.9V37.41z"/>
	<path class="st0" d="M165.73,22.82c0.19-0.54,0.54-1.66,0.54-1.88c0-1.28-1.18-1.31-2.46-1.5v-0.7h6l7.79,21.48h-3.32l-2.39-6.64
		h-8.14l-2.39,6.64h-1.98L165.73,22.82z M164.3,32.08h7.05l-3.64-9.32L164.3,32.08z"/>
	<path class="st0" d="M180.86,23.07c0-3.16-0.06-3.16-3.06-3.64v-0.7h9.96c3.93,0,6.48,2.14,6.48,5.91c0,6.03-4.79,6.03-8.75,6.03
		h-1.12v9.55h-3.51L180.86,23.07L180.86,23.07z M184.37,29.17h1.66c2.52,0,4.69-0.83,4.69-4.66c0-3.58-1.69-4.28-4.53-4.28
		c-1.72,0-1.82,0.61-1.82,1.91V29.17z"/>
	<path class="st0" d="M201.68,20.23h-2.2c-2.52,0-3.26,0.8-3.45,3.13h-0.89l0.13-4.63h16.34l0.13,4.72h-0.89
		c0-2.46-1.02-3.22-3.48-3.22h-2.17v19.98h-3.51V20.23H201.68z"/>
	<path class="st0" d="M214.8,22.95c0-2.68-0.1-2.71-3.19-3.13v-0.7l6.7-0.73v21.84h-3.51V22.95z"/>
	<path class="st0" d="M234.75,21.32c-0.86-0.41-3.22-1.44-5.71-1.44c-1.69,0-3.06,0.99-3.06,3.1c0,4.92,10.37,4.47,10.37,11.3
		c0,4.56-3.61,6.29-8.01,6.29c-2.46,0-4.91-0.67-5.59-0.83v-2.59c0.99,0.57,3.54,1.92,6.1,1.92c2.01,0,3.99-0.83,3.99-3.73
		c0-5.17-10.37-4.69-10.37-11.43c0-3.51,2.68-5.52,7.18-5.52c2.2,0,4.28,0.41,5.11,0.57v2.36H234.75z"/>
	<path class="st0" d="M243.72,20.23h-2.2c-2.52,0-3.26,0.8-3.45,3.13h-0.89l0.13-4.63h16.34l0.13,4.72h-0.89
		c0-2.46-1.02-3.22-3.48-3.22h-2.17v19.98h-3.51V20.23H243.72z"/>
</g>
<path class="st1" d="M108.04,22.36l0.02-0.01l-7.16-1.15c0,0-0.74,1.07-1.07,1.65c0.33-0.57,1.07-1.64,1.09-1.63L108.04,22.36z"/>
<path class="st1" d="M112.5,8.65c0,0,0.2,1,0.15,1.18c-0.05,0.18,0.39,1.41,0.39,1.41L97.01,20l16.03-8.74l0.02,0.01l1.3,0.92
	l16.66,11.91L113.04,7.98l-0.29,0.23L112.5,8.65z"/>
<polygon class="st1" points="96.96,20.03 96.96,20.03 113.04,7.98 "/>
<path class="st1" d="M132.03,52.65l-2.08-1.71l-0.91-18.05c0,0-1.87-6.4-2.37-7.66c-0.25-0.62-1.72-3.4-1.72-3.4l-7.17,1.15
	l0.91,0.66l0.11,5l0.01-0.01l0.77-0.44l-0.02,2.53c0,0-0.01,0.01-0.01,0.01v0c0,0-0.3,0.3-0.44,0.36c-0.06,0.02-0.15-0.02-0.25-0.07
	l0.02,1.07c0.32,0.04,0.96,0.03,1.09-0.53c0.01-0.01,0.01-0.02,0.01-0.03c0.02,0.37,0.23,1.23,1.33,2.33l0.12,8.47l-2.36-1.52
	l0.04,1.84l0.91,1.65v1.89l9.53,6.4l0.72,0.05l0.26,7.22h2.09l-0.33-7.21H132.03z M123.96,31.74l0.68,1.03c0,0,0.16,2.2-0.01,2.03
	c-0.16-0.17-0.72-1.39-0.72-1.39L123.96,31.74z M121.34,32.21c-0.14-0.17-0.73-0.84-0.81-1.12c-0.1-0.33-0.12-0.75-0.12-0.75
	l-0.05-1.25l0,0l0-0.01l0.96,1.23l0.05,1.94C121.37,32.25,121.36,32.24,121.34,32.21z M120.81,28.24c0,0,0,0,0.01,0
	c0.01,0,0.05,0,0.15,0c0,0,0.01,0,0.01,0c0.16,0,0.54,0.17,0.7,0.28c0.14,0.1,1.15,1.19,1.37,1.43c0.01,0.01,0.01,0.01,0.02,0.02
	c0.01,0.01,0.02,0.02,0.02,0.02l-0.01,0c0,0,0.01,0.01,0.01,0.01l-1.35-0.04l-0.04,0L120.81,28.24z M122.28,30.8l0.02-0.17
	l0.98-0.08c0,0-0.23,0.39-0.23,0.5s-0.05,1.7-0.05,1.78c0,0.08-0.14,0.61-0.3,0.69c-0.16,0.09-0.45-0.08-0.44-0.08L122.28,30.8z
	 M122.59,43.13l-0.27-8.69c0,0,0.01,0,0.01,0l0,0c0,0,0.15,0.03,0.35,0.04c0.33,0.01,0.8-0.08,0.91-0.55c0-0.01,0-0.01,0-0.02
	c0.01,0,0.01,0,0.01,0c0,0,0,0.01,0,0.02c0-0.01,0-0.02,0.01-0.02c0.01,0.19,0.07,0.5,0.26,0.9c0.18,0.37,0.49,0.83,0.98,1.34
	c0.03,0.03,0.06,0.06,0.09,0.1l0.12,8.48l-0.87-0.56L122.59,43.13z"/>
<path class="st1" d="M93,51.93l-0.75-0.99l0.91-0.33l0.58-19.52c0,0,5.2-6.92,5.99-8.09c-0.64,0.94-3.93,5.33-5.34,7.21l0.55-8.35
	l-1.67,1.19l-1.21,26.53l-1.91,4.37l-0.38,5.91h2.66l0.53-7.98L93,51.93z"/>
<polygon class="st1" points="103.56,46.72 102.97,59.86 105.54,59.86 105.8,45.61 "/>
<polygon class="st0" points="119.58,28.19 118.81,28.63 118.8,28.64 118.8,28.64 119.57,28.2 119.55,30.73 119.56,30.72 "/>
<path class="st0" d="M120.41,30.33l-0.05-1.24l0.05,1.25c0,0,0.02,0.42,0.12,0.75c0.08,0.28,0.66,0.96,0.81,1.12
	c-0.14-0.17-0.73-0.84-0.81-1.13C120.43,30.75,120.41,30.33,120.41,30.33z"/>
<polygon class="st1" points="120.36,29.08 120.36,29.09 121.32,30.31 "/>
<path class="st0" d="M123.09,29.99c0,0-0.02-0.01-0.02-0.02C123.07,29.98,123.08,29.99,123.09,29.99L123.09,29.99z"/>
<path class="st0" d="M121.71,29.96l-0.89-1.72c-0.01,0-0.01,0-0.01,0l0.89,1.72l0.04,0L121.71,29.96z"/>
<path class="st1" d="M123.61,33.91c-0.01,0-0.01,0.01-0.01,0.02c0.02,0.19,0.08,0.49,0.27,0.88
	C123.68,34.41,123.62,34.1,123.61,33.91z"/>
<path class="st1" d="M122.68,34.48c-0.2,0-0.35-0.04-0.35-0.04l0,0C122.35,34.45,122.49,34.48,122.68,34.48z"/>
<path class="st1" d="M124.94,36.24c-0.03-0.03-0.06-0.06-0.09-0.1c0.03,0.03,0.05,0.06,0.08,0.09l0.12,8.48l-0.86-0.55l0.87,0.56
	L124.94,36.24z"/>
<path class="st1" d="M93.16,50.61l-0.91,0.33L93,51.93l10.56-5.22l0,0.01l2.24-1.11l0-0.02l0.01-0.01l0.02-1.26v-0.65l0.91-1.65
	l0.06-2.7l-3.03,1.56l0.15-8.48c1.38-1.09,1.64-1.95,1.66-2.33c0.01,0.01,0.01,0.02,0.01,0.03c0.17,0.57,1.01,0.56,1.4,0.53
	l0.02-1.11c-0.15,0.07-0.31,0.13-0.4,0.11c-0.17-0.05-0.55-0.36-0.55-0.36l-0.03-2.53l1.03,0.48l0.09-4.21l0.89-0.65l-7.12-1.14
	c-0.02-0.01-0.76,1.06-1.09,1.63c-0.02,0.03-0.05,0.08-0.1,0.15c-0.79,1.18-5.99,8.09-5.99,8.09L93.16,50.61z M105.01,28.88
	c0,0-0.02,0.42-0.14,0.75c-0.12,0.34-1.05,1.17-1.05,1.17l0.06-1.94l1.19-1.23L105.01,28.88z M101.74,28.5
	c0.27-0.24,1.52-1.33,1.71-1.43c0.2-0.11,0.67-0.28,0.87-0.28s0.2,0,0.2,0l-1.1,1.72l-1.73,0.04
	C101.69,28.55,101.71,28.53,101.74,28.5z M102.66,29.19l0.03,0.17l0.03,2.64c0,0-0.35,0.17-0.55,0.08c-0.2-0.08-0.38-0.61-0.38-0.69
	c0-0.08-0.06-1.67-0.06-1.78s-0.29-0.5-0.29-0.5L102.66,29.19z M99.76,31.33l0.84-1.03l0.06,1.67c0,0-0.7,1.22-0.9,1.39
	S99.76,31.33,99.76,31.33z M99.4,34.79c1.37-1.08,1.63-1.94,1.66-2.32c0.01,0,0.01,0,0.01,0c0,0.01,0,0.01,0,0.02
	c0.23,0.75,1.6,0.5,1.6,0.5l-0.34,8.69l-3.08,1.59L99.4,34.79z"/>
<path class="st0" d="M106.03,26.74l0.03,2.53c0,0,0.38,0.31,0.55,0.36c0.09,0.03,0.25-0.04,0.4-0.11l0.05-2.31L106.03,26.74z"/>
<path class="st0" d="M105.59,30.11c0-0.01,0-0.02-0.01-0.03c-0.02,0.38-0.28,1.24-1.66,2.33l-0.15,8.48l3.03-1.56l0.19-8.69
	C106.6,30.67,105.76,30.68,105.59,30.11z"/>
<path class="st0" d="M102.67,32.99c0,0-1.37,0.25-1.6-0.5c0-0.01,0-0.01,0-0.02c0,0,0,0-0.01,0c-0.03,0.38-0.29,1.24-1.66,2.32
	l-0.15,8.48l3.08-1.59L102.67,32.99z"/>
<path class="st0" d="M104.52,26.79c0,0,0,0-0.2,0s-0.67,0.17-0.87,0.28c-0.19,0.1-1.44,1.19-1.71,1.43
	c-0.03,0.03-0.05,0.05-0.05,0.05l1.73-0.04L104.52,26.79z"/>
<path class="st0" d="M101.79,31.39c0,0.08,0.18,0.61,0.38,0.69c0.2,0.09,0.55-0.08,0.55-0.08l-0.03-2.64l-0.03-0.17l-1.22-0.08
	c0,0,0.29,0.39,0.29,0.5S101.79,31.31,101.79,31.39z"/>
<path class="st0" d="M103.82,30.8c0,0,0.93-0.83,1.05-1.17c0.12-0.33,0.14-0.75,0.14-0.75l0.06-1.25l-1.19,1.23L103.82,30.8z"/>
<path class="st0" d="M99.76,33.36c0.2-0.17,0.9-1.39,0.9-1.39l-0.06-1.67l-0.84,1.03C99.76,31.33,99.56,33.53,99.76,33.36z"/>
<polygon class="st1" points="105.83,44.33 105.81,45.58 105.83,45.57 "/>
<polygon class="st0" points="93,51.93 92.96,51.88 92.43,59.86 102.97,59.86 103.56,46.72 "/>
<polygon class="st0" points="93,51.93 103.56,46.72 103.56,46.71 "/>
<path class="st1" d="M113.04,11.24c0,0-0.44-1.23-0.39-1.41c0.05-0.18-0.15-1.18-0.15-1.18l0.25-0.44l0.29-0.23L96.96,20.03
	L97.01,20L113.04,11.24z"/>
<polygon class="st0" points="120.36,29.09 120.36,29.09 120.41,30.33 "/>
<path class="st0" d="M120.36,29.09l0.05,1.24c0,0,0.02,0.42,0.12,0.75c0.08,0.29,0.66,0.97,0.81,1.13c0.02,0.02,0.03,0.04,0.03,0.04
	l-0.05-1.94L120.36,29.09z"/>
<path class="st0" d="M123.04,29.95c0.02,0.02,0.02,0.02,0.03,0.02c-0.01-0.01-0.01-0.01-0.02-0.02c-0.22-0.24-1.23-1.33-1.37-1.43
	c-0.16-0.11-0.54-0.28-0.7-0.28c0,0-0.01,0-0.01,0c0.16,0,0.54,0.17,0.7,0.28C121.81,28.62,122.82,29.71,123.04,29.95z"/>
<polygon class="st0" points="123.09,30 123.08,29.99 121.74,29.96 "/>
<path class="st0" d="M121.74,29.96l1.34,0.03c0,0-0.01-0.01-0.01-0.02c-0.01-0.01-0.01-0.01-0.03-0.02
	c-0.22-0.24-1.23-1.33-1.37-1.43c-0.16-0.11-0.54-0.28-0.7-0.28c-0.1,0-0.14,0-0.15,0l0.89,1.72L121.74,29.96z"/>
<polygon class="st0" points="122.33,34.44 122.32,34.44 122.59,43.13 124.19,44.16 122.6,43.13 "/>
<path class="st0" d="M123.6,33.93C123.6,33.93,123.6,33.93,123.6,33.93c0-0.01,0-0.02,0-0.02c0,0,0,0-0.01,0
	C123.59,33.92,123.59,33.92,123.6,33.93c-0.12,0.47-0.58,0.55-0.92,0.55C123.02,34.49,123.49,34.41,123.6,33.93z"/>
<path class="st0" d="M123.87,34.81c0.18,0.37,0.49,0.83,0.98,1.34C124.36,35.64,124.05,35.18,123.87,34.81z"/>
<path class="st0" d="M124.93,36.23c-0.03-0.03-0.05-0.06-0.08-0.09c-0.49-0.51-0.8-0.96-0.98-1.34c-0.19-0.39-0.25-0.69-0.27-0.88
	c0,0,0,0,0,0c-0.11,0.48-0.58,0.56-0.92,0.55c-0.19,0-0.33-0.03-0.35-0.04l0.27,8.69l1.59,1.03l0.86,0.55L124.93,36.23z"/>
<path class="st0" d="M124.64,32.77l-0.68-1.03l-0.05,1.67c0,0,0.56,1.22,0.72,1.39C124.8,34.97,124.64,32.77,124.64,32.77z"/>
<path class="st0" d="M122.7,33.52c0.16-0.08,0.3-0.61,0.3-0.69c0-0.08,0.05-1.67,0.05-1.78s0.23-0.5,0.23-0.5l-0.98,0.08l-0.02,0.17
	l-0.02,2.64C122.25,33.44,122.54,33.61,122.7,33.52z"/>
<polygon class="st0" points="113.04,11.26 114.36,12.19 113.06,11.27 "/>
<path class="st0" d="M90.15,53.95l1.91-4.37l1.21-26.53l1.67-1.19l-0.55,8.35c1.41-1.89,4.7-6.28,5.34-7.21
	c0.04-0.06,0.08-0.12,0.1-0.15c0.33-0.58,1.07-1.65,1.07-1.65l7.16,1.15l-0.02,0.01l0.04,0.01l-0.91,0.66l-0.09,4.2l0.2,0.09v2.06
	c0,0-0.11,0.07-0.25,0.13l-0.02,1.12c0.11-0.01,0.18-0.02,0.18-0.02l-0.34,8.69l-0.03,0.02l-0.06,2.73l-0.91,1.65v1.89l-0.05,0.02
	l-0.26,14.25h24.98l-0.26-7.22l-0.72-0.05l-9.53-6.4V44.3l-0.91-1.65l-0.04-1.84l2.36,1.52l-0.12-8.47c-1.1-1.1-1.31-1.96-1.33-2.33
	c0,0.01,0,0.02-0.01,0.03c-0.13,0.56-0.77,0.57-1.09,0.53l-0.02-1.07c0.1,0.05,0.19,0.09,0.25,0.07c0.14-0.06,0.44-0.36,0.44-0.36v0
	c-0.03,0.03-0.3,0.29-0.43,0.35c-0.05,0.02-0.15-0.02-0.26-0.07c-0.15-0.07-0.29-0.18-0.29-0.18v-2.06l0.23-0.13l-0.11-5l-0.91-0.66
	l7.17-1.15c0,0,1.47,2.78,1.72,3.4c0.5,1.26,2.37,7.66,2.37,7.66l0.91,18.05l2.08,1.71h0.26l0.33,7.21h3.29l-0.4-4.83l-1.11-1.11
	l-2.11-25.12l-0.56-0.67v-1.78l1.11-0.33l-1.33-2.11l-0.33-4.78l-1.22-3.67l-2.89,0.45l-2.89-2.22l-1-3.34l-3.11-0.33l-1.56-1.67
	l-2.22-6l-1.52,0.18l-0.89-0.33L113,1.13v1.35l-0.01-1.37l-1.1,1.1L110,1.9l-1.1,1.89l-2.2,3.61l-1.73,1.73l-3.46,0.31l-1.41,2.51
	L96.79,14l-3.46-0.31l-1.57,2.67l-0.47,5.82l-1.57,1.41l0.63,0.47l0.63,0.79v1.73l-0.63,0.63l-2.36,24.36l-0.79,1.41l-0.58,6.88
	h3.15L90.15,53.95z M96.96,20.03l16.08-12.05l17.98,16.12l-16.66-11.91l-1.32-0.93L97.01,20L96.96,20.03L96.96,20.03L96.96,20.03z"
	/>
<path class="st0" d="M118.8,28.64L118.8,28.64l-0.23,0.13v2.06c0,0,0.14,0.11,0.29,0.18c0.11,0.05,0.21,0.09,0.26,0.07
	c0.13-0.06,0.4-0.32,0.43-0.35l0.02-2.53L118.8,28.64z"/>
<polygon class="st0" points="107.06,27.22 107.08,27.23 107.17,23.03 108.08,22.37 108.04,22.36 107.15,23.01 "/>
<polygon class="st0" points="106.74,42.03 105.83,43.68 105.83,44.33 105.84,43.69 105.84,45.58 105.81,45.6 105.81,45.58 
	105.8,45.59 105.8,45.61 105.85,45.59 105.85,43.7 106.76,42.05 106.82,39.32 106.8,39.33 "/>
<path class="st0" d="M106.99,30.64c0.01,0,0.01,0,0.02,0l0.02-1.12c-0.01,0-0.01,0.01-0.02,0.01L106.99,30.64z"/>
<path class="st0" d="M99.73,23c0.05-0.07,0.08-0.12,0.1-0.15C99.81,22.88,99.77,22.94,99.73,23z"/>
<path class="st0" d="M107.28,29.38v-2.06l-0.2-0.09l-0.05,2.29C107.17,29.45,107.28,29.38,107.28,29.38z"/>
<path class="st0" d="M107.01,29.52c0.01,0,0.01-0.01,0.02-0.01l0.05-2.29l-0.02-0.01L107.01,29.52z"/>
<path class="st0" d="M106.85,39.3l0.34-8.69c0,0-0.08,0.01-0.18,0.02l-0.19,8.68L106.85,39.3z"/>
<path class="st0" d="M106.8,39.33l0.02-0.01l0.19-8.68c-0.01,0-0.01,0-0.02,0L106.8,39.33z"/>
<polygon class="st0" points="105.84,45.58 105.84,43.69 105.83,44.33 105.83,45.57 105.81,45.58 105.81,45.6 "/>
<polygon class="st0" points="97.01,20 96.96,20.03 96.96,20.03 "/>
</svg>
